<svg version="1.1" viewBox="0 0 5 5" xmlns="http://www.w3.org/2000/svg" xmlns:xlink="http://www.w3.org/1999/xlink">

	<!-- Six diamonds -->
	<path fill="rgb(0, 15, 176)" stroke="none" paint-order="stroke fill markers"
		fill-rule="evenodd"
		d=" M 3.21 1.27 L 4.62 1.27 L 3.92 2.50 L 2.50 2.50 Z"
		fill-opacity="1" />
	<path fill="rgb(0, 15, 176)" stroke="none" paint-order="stroke fill markers"
		fill-rule="evenodd"
		d=" M 3.92 2.50 L 4.62 3.73 L 3.21 3.73 L 2.50 2.50 Z"
		fill-opacity="1" />
	<path fill="rgb(0, 15, 176)" stroke="none" paint-order="stroke fill markers"
		fill-rule="evenodd"
		d=" M 3.21 3.73 L 2.50 4.96 L 1.80 3.73 L 2.50 2.50 Z"
		fill-opacity="1" />
	<path fill="rgb(0, 15, 176)" stroke="none" paint-order="stroke fill markers"
		fill-rule="evenodd"
		d=" M 1.80 3.73 L 0.40 3.73 L 1.09 2.50 L 2.50 2.50 Z"
		fill-opacity="1" />
	<path fill="rgb(0, 15, 176)" stroke="none" paint-order="stroke fill markers"
		fill-rule="evenodd"
		d=" M 1.09 2.50 L 0.40 1.27 L 1.80 1.27 L 2.50 2.50 Z"
		fill-opacity="1" />
	<path fill="rgb(0, 15, 176)" stroke="none" paint-order="stroke fill markers"
		fill-rule="evenodd"
		d=" M 1.80 1.27 L 2.50 0.04 L 3.21 1.27 L 2.50 2.50 Z"
		fill-opacity="1" />

	<!-- Border -->
	<path fill="none" stroke="rgb(0,0,0)" paint-order="stroke fill markers"
		d=" M 3.21 1.27 L 4.62 1.27 L 3.92 2.50 L 2.50 2.50 Z"
		stroke-opacity="1" stroke-linecap="round" stroke-linejoin="round"
		stroke-miterlimit="10" stroke-width="0.07" />
	<path fill="none" stroke="rgb(0,0,0)" paint-order="fill stroke markers"
		d=" M 3.92 2.50 L 4.62 3.73 L 3.21 3.73 L 2.50 2.50 Z"
		stroke-opacity="1" stroke-linecap="round" stroke-linejoin="round"
		stroke-miterlimit="10" stroke-width="0.07" />
	<path fill="none" stroke="rgb(0,0,0)" paint-order="fill stroke markers"
		d=" M 3.21 3.73 L 2.50 4.96 L 1.80 3.73 L 2.50 2.50 Z"
		stroke-opacity="1" stroke-linecap="round" stroke-linejoin="round"
		stroke-miterlimit="10" stroke-width="0.07" />
	<path fill="none" stroke="rgb(0,0,0)" paint-order="fill stroke markers"
		d=" M 1.80 3.73 L 0.40 3.73 L 1.09 2.50 L 2.50 2.50 Z"
		stroke-opacity="1" stroke-linecap="round" stroke-linejoin="round"
		stroke-miterlimit="10" stroke-width="0.07" />
	<path fill="none" stroke="rgb(0,0,0)" paint-order="fill stroke markers"
		d=" M 1.09 2.50 L 0.40 1.27 L 1.80 1.27 L 2.50 2.50 Z"
		stroke-opacity="1" stroke-linecap="round" stroke-linejoin="round"
		stroke-miterlimit="10" stroke-width="0.07" />
	<path fill="none" stroke="rgb(0,0,0)" paint-order="fill stroke markers"
		d=" M 1.80 1.27 L 2.50 0.04 L 3.21 1.27 L 2.50 2.50 Z"
		stroke-opacity="1" stroke-linecap="round" stroke-linejoin="round"
		stroke-miterlimit="10" stroke-width="0.07" />

</svg>
