<svg version="1.1" viewBox="0 0 5 5" xmlns="http://www.w3.org/2000/svg" xmlns:xlink="http://www.w3.org/1999/xlink" >

	<!-- Six diamonds -->
	<path fill="rgb(255,0,0)" stroke="none" paint-order="stroke fill markers"
		fill-rule="evenodd"
		d=" M 2.90 1.30 L 4.30 1.30 L 3.60 2.54 L 2.20 2.54 Z"
		fill-opacity="1" />
	<path fill="rgb(255,0,0)" stroke="none" paint-order="stroke fill markers"
		fill-rule="evenodd"
		d=" M 3.60 2.54 L 4.30 3.83 L 2.90 3.83 L 2.20 2.54 Z"
		fill-opacity="1" />
	<path fill="rgb(255,0,0)" stroke="none" paint-order="stroke fill markers"
		fill-rule="evenodd"
		d=" M 2.90 3.83 L 2.20 5.00 L 1.50 3.83 L 2.20 2.54 Z"
		fill-opacity="1" />
	<path fill="rgb(255,0,0)" stroke="none" paint-order="stroke fill markers"
		fill-rule="evenodd"
		d=" M 1.50 3.83 L 0.07 3.83 L 0.77 2.54 L 2.20 2.54 Z"
		fill-opacity="1" />
	<path fill="rgb(255,0,0)" stroke="none" paint-order="stroke fill markers"
		fill-rule="evenodd"
		d=" M 0.77 2.54 L 0.07 1.30 L 1.50 1.30 L 2.20 2.54 Z"
		fill-opacity="1" />
	<path fill="rgb(255,0,0)" stroke="none" paint-order="stroke fill markers"
		fill-rule="evenodd"
		d=" M 1.50 1.30 L 2.20 0.07 L 2.90 1.30 L 2.20 2.54 Z"
		fill-opacity="1" />

	<!-- Border -->
	<path fill="none" stroke="rgb(0,0,0)" paint-order="stroke fill markers"
		d=" M 2.90 1.30 L 4.30 1.30 L 3.60 2.54 L 2.20 2.54 Z"
		stroke-opacity="1" stroke-linecap="round" stroke-linejoin="round"
		stroke-miterlimit="10" stroke-width="0.07" />
	<path fill="none" stroke="rgb(0,0,0)" paint-order="fill stroke markers"
		d=" M 3.60 2.54 L 4.30 3.83 L 2.90 3.83 L 2.20 2.54 Z"
		stroke-opacity="1" stroke-linecap="round" stroke-linejoin="round"
		stroke-miterlimit="10" stroke-width="0.07" />
	<path fill="none" stroke="rgb(0,0,0)" paint-order="fill stroke markers"
		d=" M 2.90 3.83 L 2.20 5.00 L 1.50 3.83 L 2.20 2.54 Z"
		stroke-opacity="1" stroke-linecap="round" stroke-linejoin="round"
		stroke-miterlimit="10" stroke-width="0.07" />
	<path fill="none" stroke="rgb(0,0,0)" paint-order="fill stroke markers"
		d=" M 1.50 3.83 L 0.07 3.83 L 0.77 2.54 L 2.20 2.54 Z"
		stroke-opacity="1" stroke-linecap="round" stroke-linejoin="round"
		stroke-miterlimit="10" stroke-width="0.07" />
	<path fill="none" stroke="rgb(0,0,0)" paint-order="fill stroke markers"
		d=" M 0.77 2.54 L 0.07 1.30 L 1.50 1.30 L 2.20 2.54 Z"
		stroke-opacity="1" stroke-linecap="round" stroke-linejoin="round"
		stroke-miterlimit="10" stroke-width="0.07" />
	<path fill="none" stroke="rgb(0,0,0)" paint-order="fill stroke markers"
		d=" M 1.50 1.30 L 2.20 0.07 L 2.90 1.30 L 2.20 2.54 Z"
		stroke-opacity="1" stroke-linecap="round" stroke-linejoin="round"
		stroke-miterlimit="10" stroke-width="0.07" />

</svg>
