<svg version="1.1" xmlns="http://www.w3.org/2000/svg" xmlns:xlink="http://www.w3.org/1999/xlink" viewBox="-1 -1 2 2">

	<!-- Border -->
	<path fill="none" stroke="black" paint-order="fill stroke markers" d="M  0.0000 -1.0000 L  0.2887 -0.8333 L  0.0000  1.0000 L -0.2887 -0.8333 Z" stroke-opacity="1" stroke-linecap="round" stroke-linejoin="round" stroke-miterlimit="10" stroke-width="0.07" />
	<path fill="none" stroke="black" paint-order="fill stroke markers" d="M  0.8660 -0.5000 L  0.8660 -0.1667 L -0.8660  0.5000 L  0.5774 -0.6667 Z" stroke-opacity="1" stroke-linecap="round" stroke-linejoin="round" stroke-miterlimit="10" stroke-width="0.07" />
	<path fill="none" stroke="black" paint-order="fill stroke markers" d="M  0.8660  0.5000 L  0.5774  0.6667 L -0.8660 -0.5000 L  0.8660  0.1667 Z" stroke-opacity="1" stroke-linecap="round" stroke-linejoin="round" stroke-miterlimit="10" stroke-width="0.07" />
	<path fill="none" stroke="black" paint-order="fill stroke markers" d="M  0.0000  1.0000 L -0.2887  0.8333 L  0.0000 -1.0000 L  0.2887  0.8333 Z" stroke-opacity="1" stroke-linecap="round" stroke-linejoin="round" stroke-miterlimit="10" stroke-width="0.07" />
	<path fill="none" stroke="black" paint-order="fill stroke markers" d="M -0.8660  0.5000 L -0.8660  0.1667 L  0.8660 -0.5000 L -0.5774  0.6667 Z" stroke-opacity="1" stroke-linecap="round" stroke-linejoin="round" stroke-miterlimit="10" stroke-width="0.07" />
	<path fill="none" stroke="black" paint-order="fill stroke markers" d="M -0.8660 -0.5000 L -0.5774 -0.6667 L  0.8660  0.5000 L -0.8660 -0.1667 Z" stroke-opacity="1" stroke-linecap="round" stroke-linejoin="round" stroke-miterlimit="10" stroke-width="0.07" />

	<!-- Six Symbols -->
	<path fill="red" stroke="none" paint-order="stroke fill markers" fill-rule="evenodd" d="M  0.0000 -1.0000 L  0.2887 -0.8333 L  0.0000  1.0000 L -0.2887 -0.8333 Z" fill-opacity="1" />
	<path fill="red" stroke="none" paint-order="stroke fill markers" fill-rule="evenodd" d="M  0.8660 -0.5000 L  0.8660 -0.1667 L -0.8660  0.5000 L  0.5774 -0.6667 Z" fill-opacity="1" />
	<path fill="red" stroke="none" paint-order="stroke fill markers" fill-rule="evenodd" d="M  0.8660  0.5000 L  0.5774  0.6667 L -0.8660 -0.5000 L  0.8660  0.1667 Z" fill-opacity="1" />
	<path fill="red" stroke="none" paint-order="stroke fill markers" fill-rule="evenodd" d="M  0.0000  1.0000 L -0.2887  0.8333 L  0.0000 -1.0000 L  0.2887  0.8333 Z" fill-opacity="1" />
	<path fill="red" stroke="none" paint-order="stroke fill markers" fill-rule="evenodd" d="M -0.8660  0.5000 L -0.8660  0.1667 L  0.8660 -0.5000 L -0.5774  0.6667 Z" fill-opacity="1" />
	<path fill="red" stroke="none" paint-order="stroke fill markers" fill-rule="evenodd" d="M -0.8660 -0.5000 L -0.5774 -0.6667 L  0.8660  0.5000 L -0.8660 -0.1667 Z" fill-opacity="1" />
</svg>
