<svg version="1.1" viewBox="-2.46 -2.46 2.46 2.46" xmlns="http://www.w3.org/2000/svg" xmlns:xlink="http://www.w3.org/1999/xlink">

	<!-- Six diamonds -->
	<path fill="rgb(255,0,0)" stroke="none" paint-order="stroke fill markers"
		fill-rule="evenodd"
		d=" M +0.71 -1.23 L +2.12 -1.23 L +1.42 +0.00 L +0.00 +0.00 Z"
		fill-opacity="1" />
	<path fill="rgb(255,0,0)" stroke="none" paint-order="stroke fill markers"
		fill-rule="evenodd"
		d=" M +1.42 +0.00 L +2.12 +1.23 L +0.71 +1.23 L +0.00 +0.00 Z"
		fill-opacity="1" />
	<path fill="rgb(255,0,0)" stroke="none" paint-order="stroke fill markers"
		fill-rule="evenodd"
		d=" M +0.71 +1.23 L +0.00 +2.46 L -0.70 +1.23 L +0.00 +0.00 Z"
		fill-opacity="1" />
	<path fill="rgb(255,0,0)" stroke="none" paint-order="stroke fill markers"
		fill-rule="evenodd"
		d=" M -0.70 +1.23 L -2.11 +1.23 L -1.41 +0.00 L +0.00 +0.00 Z"
		fill-opacity="1" />
	<path fill="rgb(255,0,0)" stroke="none" paint-order="stroke fill markers"
		fill-rule="evenodd"
		d=" M -1.41 +0.00 L -2.10 -1.23 L -0.70 -1.23 L +0.00 +0.00 Z"
		fill-opacity="1" />
	<path fill="rgb(255,0,0)" stroke="none" paint-order="stroke fill markers"
		fill-rule="evenodd"
		d=" M -0.70 -1.23 L +0.00 -2.46 L +0.71 -1.23 L +0.00 +0.00 Z"
		fill-opacity="1" />

	<!-- Border -->
	<path fill="none" stroke="rgb(0,0,0)" paint-order="stroke fill markers"
		d=" M +0.71 -1.23 L +2.12 -1.23 L +1.42 +0.00 L +0.00 +0.00 Z"
		stroke-opacity="1" stroke-linecap="round" stroke-linejoin="round"
		stroke-miterlimit="10" stroke-width="0.07" />
	<path fill="none" stroke="rgb(0,0,0)" paint-order="fill stroke markers"
		d=" M +1.42 +0.00 L +2.12 +1.23 L +0.71 +1.23 L +0.00 +0.00 Z"
		stroke-opacity="1" stroke-linecap="round" stroke-linejoin="round"
		stroke-miterlimit="10" stroke-width="0.07" />
	<path fill="none" stroke="rgb(0,0,0)" paint-order="fill stroke markers"
		d=" M +0.71 +1.23 L +0.00 +2.46 L -0.70 +1.23 L +0.00 +0.00 Z"
		stroke-opacity="1" stroke-linecap="round" stroke-linejoin="round"
		stroke-miterlimit="10" stroke-width="0.07" />
	<path fill="none" stroke="rgb(0,0,0)" paint-order="fill stroke markers"
		d=" M -0.70 +1.23 L -2.11 +1.23 L -1.41 +0.00 L +0.00 +0.00 Z"
		stroke-opacity="1" stroke-linecap="round" stroke-linejoin="round"
		stroke-miterlimit="10" stroke-width="0.07" />
	<path fill="none" stroke="rgb(0,0,0)" paint-order="fill stroke markers"
		d=" M -1.41 +0.00 L -2.10 -1.23 L -0.70 -1.23 L +0.00 +0.00 Z"
		stroke-opacity="1" stroke-linecap="round" stroke-linejoin="round"
		stroke-miterlimit="10" stroke-width="0.07" />
	<path fill="none" stroke="rgb(0,0,0)" paint-order="fill stroke markers"
		d=" M -0.70 -1.23 L +0.00 -2.46 L +0.71 -1.23 L +0.00 +0.00 Z"
		stroke-opacity="1" stroke-linecap="round" stroke-linejoin="round"
		stroke-miterlimit="10" stroke-width="0.07" />

</svg>
